<svg width="1080" height="1920" viewBox="0 0 1080 1920" fill="none" xmlns="http://www.w3.org/2000/svg">
  <rect width="1080" height="1920" fill="#140F14"/>
  <rect width="1080" height="1920" fill="url(#bg)"/>
  <ellipse cx="220" cy="260" rx="180" ry="180" fill="#F3B765" fill-opacity="0.16"/>
  <g transform="translate(100 400)">
    <ellipse cx="440" cy="700" rx="360" ry="360" fill="#1E1A1F"/>
    <ellipse cx="440" cy="700" rx="320" ry="320" fill="#D19147"/>
    <ellipse cx="440" cy="700" rx="280" ry="280" fill="#7C2F2B"/>
    <path d="M240 620C300 560 380 540 470 570C560 600 620 580 680 520" stroke="#EBCB74" stroke-width="24" stroke-linecap="round"/>
    <path d="M250 700C320 650 400 640 490 665C580 690 640 680 700 620" stroke="#EBCB74" stroke-width="24" stroke-linecap="round"/>
    <path d="M250 790C320 740 400 730 490 755C580 780 640 770 700 710" stroke="#EBCB74" stroke-width="24" stroke-linecap="round"/>
    <circle cx="365" cy="590" r="84" fill="#F6E5C6"/>
    <circle cx="365" cy="590" r="36" fill="#D6A246"/>
    <rect x="625" y="470" width="26" height="470" rx="13" fill="#D9B06B"/>
    <rect x="675" y="450" width="26" height="490" rx="13" fill="#D9B06B"/>
    <circle cx="570" cy="830" r="18" fill="#2F8C58"/>
    <circle cx="610" cy="790" r="18" fill="#2F8C58"/>
    <circle cx="650" cy="840" r="18" fill="#2F8C58"/>
  </g>
  <defs>
    <linearGradient id="bg" x1="180" y1="0" x2="960" y2="1920" gradientUnits="userSpaceOnUse">
      <stop stop-color="#2F1B24"/>
      <stop offset="0.55" stop-color="#171116"/>
      <stop offset="1" stop-color="#0E0A10"/>
    </linearGradient>
  </defs>
</svg>
