<?xml version="1.0" encoding="UTF-8" standalone="no"?>
<!DOCTYPE svg PUBLIC "-//W3C//DTD SVG 1.1//EN" "http://www.w3.org/Graphics/SVG/1.1/DTD/svg11.dtd">
<svg width="100%" height="100%" viewBox="0 0 2066 411" version="1.1" xmlns="http://www.w3.org/2000/svg" xmlns:xlink="http://www.w3.org/1999/xlink" xml:space="preserve" xmlns:serif="http://www.serif.com/" style="fill-rule:evenodd;clip-rule:evenodd;stroke-linejoin:round;stroke-miterlimit:2;">
    <g transform="matrix(1,0,0,1,-11071.59947,-4771.247686)">
        <g transform="matrix(1,0,0,1,-0.535433,0)">
            <g transform="matrix(1,0,0,1,8148,-223.069864)">
                <g id="Pickyalo" transform="matrix(1.628512,0,0,1.628512,3779.822145,4028.411185)">
                    <g transform="matrix(300,0,0,300,-534.441177,794.122056)">
                        <path d="M0.218,-0L0.218,-0.169L0.401,-0.169C0.56,-0.169 0.66,-0.261 0.66,-0.42C0.66,-0.579 0.56,-0.67 0.401,-0.67L0.03,-0.67L0.03,-0L0.218,-0ZM0.38,-0.501C0.446,-0.501 0.473,-0.488 0.473,-0.42C0.473,-0.351 0.446,-0.338 0.38,-0.338L0.218,-0.338L0.218,-0.501L0.38,-0.501Z" style="fill:rgb(227,89,55);fill-rule:nonzero;"/>
                    </g>
                    <g transform="matrix(300,0,0,300,-333.441177,794.122056)">
                        <path d="M0.218,-0.55L0.218,-0.67L0.03,-0.67L0.03,-0.55L0.218,-0.55ZM0.218,-0L0.218,-0.504L0.03,-0.504L0.03,-0L0.218,-0Z" style="fill:rgb(227,89,55);fill-rule:nonzero;"/>
                    </g>
                    <g transform="matrix(300,0,0,300,-259.041177,794.122056)">
                        <path d="M0.313,0.01C0.485,0.01 0.595,-0.079 0.595,-0.213L0.595,-0.23L0.408,-0.23L0.408,-0.221C0.408,-0.169 0.37,-0.159 0.309,-0.159C0.24,-0.159 0.207,-0.174 0.207,-0.252C0.207,-0.331 0.24,-0.346 0.309,-0.346C0.37,-0.346 0.408,-0.335 0.408,-0.283L0.408,-0.275L0.595,-0.275L0.595,-0.291C0.595,-0.426 0.485,-0.514 0.313,-0.514C0.134,-0.514 0.02,-0.416 0.02,-0.252C0.02,-0.089 0.134,0.01 0.313,0.01Z" style="fill:rgb(227,89,55);fill-rule:nonzero;"/>
                    </g>
                    <g transform="matrix(300,0,0,300,-74.541177,794.122056)">
                        <path d="M0.218,-0L0.218,-0.161L0.309,-0.161L0.415,-0L0.637,-0L0.461,-0.259L0.64,-0.504L0.418,-0.504L0.307,-0.329L0.218,-0.329L0.218,-0.67L0.03,-0.67L0.03,-0L0.218,-0Z" style="fill:rgb(227,89,55);fill-rule:nonzero;"/>
                    </g>
                    <g transform="matrix(300,0,0,300,114.458823,794.122056)">
                        <path d="M0.141,0.17C0.288,0.17 0.365,0.139 0.419,0.02L0.658,-0.504L0.448,-0.504L0.373,-0.308L0.34,-0.19L0.327,-0.19L0.291,-0.306L0.204,-0.504L-0.01,-0.504L0.231,-0.006C0.223,-0.002 0.211,-0 0.196,-0L0.05,-0L0.05,0.17L0.141,0.17Z" style="fill:rgb(227,89,55);fill-rule:nonzero;"/>
                    </g>
                    <g transform="matrix(300,0,0,300,308.858823,794.122056)">
                        <path d="M0.193,0.01C0.302,0.01 0.364,-0.035 0.383,-0.106L0.393,-0.106L0.393,-0L0.569,-0L0.569,-0.287C0.569,-0.428 0.484,-0.514 0.308,-0.514C0.137,-0.514 0.025,-0.428 0.025,-0.294L0.025,-0.292L0.213,-0.292L0.213,-0.296C0.213,-0.338 0.232,-0.35 0.294,-0.35C0.361,-0.35 0.383,-0.342 0.383,-0.291L0.383,-0.281L0.178,-0.261C0.064,-0.25 0.015,-0.199 0.015,-0.128C0.015,-0.042 0.079,0.01 0.193,0.01ZM0.204,-0.14C0.204,-0.151 0.211,-0.157 0.228,-0.159L0.382,-0.177C0.377,-0.132 0.34,-0.121 0.249,-0.121C0.22,-0.121 0.204,-0.124 0.204,-0.14Z" style="fill:rgb(227,89,55);fill-rule:nonzero;"/>
                    </g>
                    <g transform="matrix(300,0,0,300,487.358823,794.122056)">
                        <rect x="0.03" y="-0.67" width="0.188" height="0.67" style="fill:rgb(227,89,55);fill-rule:nonzero;"/>
                    </g>
                </g>
                <g transform="matrix(1,0,0,1,0.535433,0)">
                    <path d="M4845.081,5326.534C4759.584,5326.534 4701.446,5278.167 4701.446,5198.533C4701.446,5118.41 4759.584,5070.532 4845.081,5070.532C4930.578,5070.532 4988.715,5118.41 4988.715,5198.533C4988.715,5278.167 4930.578,5326.534 4845.081,5326.534ZM4850.4,5225.383L4818.445,5225.383L4818.445,5255.823L4902.378,5255.823L4902.378,5171.889L4871.938,5171.889L4871.938,5203.874L4809.307,5141.243L4787.784,5162.767L4850.4,5225.383ZM4888.196,5246.046C4885.522,5246.046 4883.704,5244.534 4883.704,5242.043C4883.704,5239.538 4885.522,5238.04 4888.196,5238.04C4890.869,5238.04 4892.688,5239.538 4892.688,5242.043C4892.688,5244.534 4890.869,5246.046 4888.196,5246.046ZM4863.811,5238.193L4865.14,5241.218L4865.69,5242.991L4865.889,5242.991L4866.393,5241.188L4867.539,5238.193L4870.748,5238.193L4867.096,5246.199C4866.271,5248.017 4865.094,5248.491 4862.848,5248.491L4861.458,5248.491L4861.458,5245.893L4863.689,5245.893C4863.918,5245.893 4864.101,5245.863 4864.224,5245.802L4860.663,5238.445L4858.112,5241.936L4860.801,5245.893L4857.409,5245.893L4855.79,5243.434L4854.399,5243.434L4854.399,5245.893L4851.527,5245.893L4851.527,5235.657L4854.399,5235.657L4854.399,5240.867L4855.759,5240.867L4857.455,5238.193L4863.811,5238.193ZM4830.977,5245.893L4828.105,5245.893L4828.105,5235.657L4833.773,5235.657C4836.202,5235.657 4837.73,5237.047 4837.73,5239.476C4837.73,5241.906 4836.202,5243.311 4833.773,5243.311L4830.977,5243.311L4830.977,5245.893ZM4873.544,5246.046C4871.802,5246.046 4870.824,5245.252 4870.824,5243.938C4870.824,5242.853 4871.573,5242.074 4873.314,5241.906L4876.446,5241.6L4876.446,5241.447C4876.446,5240.668 4876.11,5240.546 4875.087,5240.546C4874.139,5240.546 4873.849,5240.729 4873.849,5241.371L4873.849,5241.432L4870.977,5241.432L4870.977,5241.402C4870.977,5239.354 4872.688,5238.04 4875.301,5238.04C4877.99,5238.04 4879.288,5239.354 4879.288,5241.509L4879.288,5245.893L4876.599,5245.893L4876.599,5244.274L4876.446,5244.274C4876.156,5245.359 4875.209,5246.046 4873.544,5246.046ZM4883.016,5245.893L4880.144,5245.893L4880.144,5235.657L4883.016,5235.657L4883.016,5245.893ZM4841.214,5237.49L4838.342,5237.49L4838.342,5235.657L4841.214,5235.657L4841.214,5237.49ZM4846.454,5246.046C4843.72,5246.046 4841.978,5244.534 4841.978,5242.043C4841.978,5239.538 4843.72,5238.04 4846.454,5238.04C4849.082,5238.04 4850.763,5239.385 4850.763,5241.447L4850.763,5241.692L4847.906,5241.692L4847.906,5241.57C4847.906,5240.775 4847.325,5240.607 4846.393,5240.607C4845.339,5240.607 4844.835,5240.836 4844.835,5242.043C4844.835,5243.235 4845.339,5243.464 4846.393,5243.464C4847.325,5243.464 4847.906,5243.311 4847.906,5242.517L4847.906,5242.379L4850.763,5242.379L4850.763,5242.639C4850.763,5244.686 4849.082,5246.046 4846.454,5246.046ZM4841.214,5245.893L4838.342,5245.893L4838.342,5238.193L4841.214,5238.193L4841.214,5245.893Z" style="fill:rgb(227,89,55);"/>
                </g>
            </g>
        </g>
    </g>
</svg>
