<?xml version="1.0" encoding="UTF-8" standalone="no"?>
<!DOCTYPE svg PUBLIC "-//W3C//DTD SVG 1.1//EN" "http://www.w3.org/Graphics/SVG/1.1/DTD/svg11.dtd">
<svg width="100%" height="100%" viewBox="0 0 599 599" version="1.1" xmlns="http://www.w3.org/2000/svg" xmlns:xlink="http://www.w3.org/1999/xlink" xml:space="preserve" xmlns:serif="http://www.serif.com/" style="fill-rule:evenodd;clip-rule:evenodd;stroke-linejoin:round;stroke-miterlimit:2;">
    <g transform="matrix(1,0,0,1,-11178.748449,-5530.136929)">
        <g transform="matrix(1,0,0,1,-0.535433,0)">
            <g transform="matrix(1,0,0,1,7381.268446,1614.672164)">
                <g transform="matrix(0.46238,0,0,0.46238,3594.027948,2114.280269)">
                    <path d="M1148.553,4846.009L441.169,4138.625L684.329,3895.465L1391.883,4603.019L1391.883,4241.678L1735.763,4241.678L1735.763,5189.89L787.552,5189.89L787.552,4846.009L1148.553,4846.009ZM929.136,5077.718L929.136,5048.548L960.722,5048.548C988.167,5048.548 1005.427,5032.668 1005.427,5005.224C1005.427,4977.779 988.167,4962.072 960.722,4962.072L896.686,4962.072L896.686,5077.718L929.136,5077.718ZM957.098,4991.242C968.49,4991.242 973.15,4993.486 973.15,5005.224C973.15,5017.133 968.49,5019.377 957.098,5019.377L929.136,5019.377L929.136,4991.242L957.098,4991.242ZM1517.031,5077.718L1517.031,4962.072L1484.581,4962.072L1484.581,5077.718L1517.031,5077.718ZM1044.781,4982.785L1044.781,4962.072L1012.331,4962.072L1012.331,4982.785L1044.781,4982.785ZM1044.781,5077.718L1044.781,4990.725L1012.331,4990.725L1012.331,5077.718L1044.781,5077.718ZM1410.015,5079.444C1428.829,5079.444 1439.531,5071.677 1442.81,5059.422L1444.536,5059.422L1444.536,5077.718L1474.915,5077.718L1474.915,5028.18C1474.915,5003.843 1460.243,4988.999 1429.865,4988.999C1400.349,4988.999 1381.017,5003.843 1381.017,5026.972L1381.017,5027.317L1413.467,5027.317L1413.467,5026.627C1413.467,5019.377 1416.747,5017.306 1427.448,5017.306C1439.013,5017.306 1442.81,5018.687 1442.81,5027.49L1442.81,5029.216L1407.426,5032.668C1387.749,5034.566 1379.291,5043.369 1379.291,5055.624C1379.291,5070.468 1390.338,5079.444 1410.015,5079.444ZM1411.914,5053.553C1411.914,5051.654 1413.122,5050.619 1416.056,5050.274L1442.638,5047.167C1441.774,5054.934 1435.388,5056.833 1419.681,5056.833C1414.675,5056.833 1411.914,5056.315 1411.914,5053.553ZM1575.544,5079.444C1605.75,5079.444 1626.29,5062.356 1626.29,5034.221C1626.29,5005.914 1605.75,4988.999 1575.544,4988.999C1545.338,4988.999 1524.798,5005.914 1524.798,5034.221C1524.798,5062.356 1545.338,5079.444 1575.544,5079.444ZM1575.544,5050.791C1560.872,5050.791 1556.903,5046.821 1556.903,5034.221C1556.903,5021.621 1560.872,5017.479 1575.544,5017.479C1590.215,5017.479 1594.185,5021.621 1594.185,5034.221C1594.185,5046.821 1590.215,5050.791 1575.544,5050.791ZM1263.128,4990.725L1228.261,4990.725L1209.102,5020.931L1193.74,5020.931L1193.74,4962.072L1161.29,4962.072L1161.29,5077.718L1193.74,5077.718L1193.74,5049.928L1209.447,5049.928L1227.743,5077.718L1266.062,5077.718L1235.683,5033.013L1264.503,4993.567L1263.128,4990.725ZM1264.503,4993.567L1304.726,5076.682C1303.345,5077.373 1301.273,5077.718 1298.684,5077.718L1273.484,5077.718L1273.484,5107.061L1289.191,5107.061C1314.564,5107.061 1327.855,5101.71 1337.175,5081.17L1378.428,4990.725L1342.181,4990.725L1329.236,5024.555L1323.54,5044.923L1321.296,5044.923L1315.082,5024.901L1300.065,4990.725L1266.58,4990.725L1264.503,4993.567ZM1103.985,5079.444C1133.673,5079.444 1152.66,5064.082 1152.66,5040.953L1152.66,5038.019L1120.383,5038.019L1120.383,5039.572C1120.383,5048.548 1113.824,5050.274 1103.295,5050.274C1091.385,5050.274 1085.689,5047.685 1085.689,5034.221C1085.689,5020.585 1091.385,5017.996 1103.295,5017.996C1113.824,5017.996 1120.383,5019.895 1120.383,5028.87L1120.383,5030.251L1152.66,5030.251L1152.66,5027.49C1152.66,5004.188 1133.673,4988.999 1103.985,4988.999C1073.089,4988.999 1053.412,5005.914 1053.412,5034.221C1053.412,5062.356 1073.089,5079.444 1103.985,5079.444Z"/>
                </g>
                <g id="Pickyalo" transform="matrix(0.266031,0,0,0.266031,4148.421179,4250.853455)">
                    <g transform="matrix(300,0,0,300,-74.541177,794.122056)">
                        <path d="M0.64,-0.504L0.628,-0.488L0.62,-0.504L0.64,-0.504Z" style="fill:white;fill-rule:nonzero;"/>
                    </g>
                    <g transform="matrix(300,0,0,300,114.458823,794.122056)">
                        <path d="M-0.01,-0.504L0.01,-0.504L-0.002,-0.488L-0.01,-0.504Z" style="fill:white;fill-rule:nonzero;"/>
                    </g>
                </g>
            </g>
        </g>
    </g>
</svg>
