<?xml version="1.0" encoding="UTF-8" standalone="no"?>
<!DOCTYPE svg PUBLIC "-//W3C//DTD SVG 1.1//EN" "http://www.w3.org/Graphics/SVG/1.1/DTD/svg11.dtd">
<svg width="100%" height="100%" viewBox="0 0 738 841" version="1.1" xmlns="http://www.w3.org/2000/svg" xmlns:xlink="http://www.w3.org/1999/xlink" xml:space="preserve" xmlns:serif="http://www.serif.com/" style="fill-rule:evenodd;clip-rule:evenodd;stroke-linejoin:round;stroke-miterlimit:2;">
    <g transform="matrix(1,0,0,1,-167.275241,-33.927979)">
        <g transform="matrix(2.498993,0,0,2.498993,142.068311,33.927978)">
            <path d="M109.654,306.66C97.404,294.742 84.871,283.567 73.521,271.298C54.247,250.462 37.482,227.737 25.657,201.686C19.729,188.627 15.062,175.131 13.025,160.95C11.422,149.785 9.819,138.433 10.125,127.216C10.811,102.014 18.57,79.045 34.001,58.662C49.214,38.566 68.98,24.659 91.542,14.365C104.597,8.408 118.334,4.736 132.546,2.186C146.65,-0.345 160.818,-0.45 174.732,0.716C201.927,2.996 227.057,12.268 248.886,29.012C269.056,44.484 284.376,64.038 294.328,87.472C299.139,98.801 302.506,110.577 304.056,122.985C307.022,146.721 303.078,169.247 294.56,191.304C288.229,207.695 279.206,222.582 268.971,236.676C256.608,253.7 241.812,268.647 226.621,283.151C208.718,300.245 190.412,316.85 169.959,330.97C158.445,338.918 148.388,337.427 136.673,329.347C127.131,322.766 118.782,314.454 109.654,306.66M262.904,192.91C267.571,185.183 273.248,177.872 276.651,169.624C280.999,159.086 281.197,154.204 266.02,154.385C255.306,154.512 244.588,154.41 233.872,154.41L141.767,154.41C130.941,154.41 120.109,154.218 109.295,154.571C107.13,154.642 103.779,156.362 103.191,158.08C102.252,160.822 102.597,164.358 103.399,167.283C107.82,183.41 116.46,196.802 128.933,208.136C145.331,223.038 164.734,230.028 186.306,231.224C196.08,231.766 205.815,229.634 215.28,226.611C228.148,222.501 239.47,215.727 249.607,207.036C254.309,203.003 258.165,197.982 262.904,192.91M138.404,87.41C135.571,92.9 132.323,98.22 129.99,103.916C125.11,115.832 121.788,128.207 120.915,141.136C120.794,142.93 120.263,144.387 123.557,143.634C126.679,142.922 130.235,144.426 133.585,144.34C141.688,144.133 149.964,145.72 157.486,140.507C164.767,135.461 172.405,130.843 180.235,126.695C197.409,117.597 215.768,111.992 235.039,109.407C239.553,108.802 241.484,105.548 240.075,101.073C236.901,90.991 229.726,84.097 221.77,77.742C207.94,66.696 191.748,63.228 174.94,65.725C160.619,67.853 147.839,74.619 138.404,87.41M80.904,203.91C81.237,197.215 81.727,190.523 81.864,183.824C82.032,175.663 81.728,167.489 81.958,159.331C82.151,152.495 81.806,145.034 91.612,144.157C91.994,144.123 92.264,143.386 92.685,143.153C100.24,138.958 102.348,131.729 102.812,123.958C103.242,116.761 102.904,109.518 102.904,102.295C102.904,91.297 102.938,80.298 102.854,69.301C102.845,68.122 102.498,66.402 101.695,65.884C99.919,64.737 97.597,63.289 95.779,63.601C92.15,64.225 89.526,66.92 88.973,70.712C88.343,75.03 88.141,79.419 87.925,83.787C87.519,91.977 87.537,100.203 86.743,108.352C86.461,111.25 84.385,113.994 83.006,116.748C82.686,117.388 81.867,117.778 81.278,118.284C81.154,117.502 80.905,116.718 80.923,115.94C81.23,102.412 81.682,88.887 81.805,75.359C81.828,72.808 81.093,69.91 79.736,67.797C78.685,66.162 76.147,64.728 74.21,64.647C72.57,64.579 69.787,66.261 69.352,67.719C68.051,72.077 66.516,76.864 67.126,81.195C68.711,92.449 67.962,103.46 65.796,114.457C65.529,115.813 63.791,116.879 62.735,118.079C61.791,116.857 60.032,115.633 60.035,114.414C60.06,105.971 60.753,97.525 60.629,89.088C60.535,82.708 60.317,76.144 58.744,70.024C57.207,64.042 49.573,63.344 46.325,68.712C44.462,71.793 43.157,75.696 43.054,79.271C42.676,92.425 42.868,105.596 42.917,118.761C42.949,127.563 45.038,135.587 52.351,141.335C60.719,147.913 63.339,156.867 62.861,166.966C62.392,176.864 61.579,186.746 60.9,196.635C60.589,201.164 60.944,205.89 59.733,210.17C58.054,216.108 59.165,221.5 60.937,226.962C62.409,231.499 67.603,234.252 73.18,233.362C77.761,232.63 79.44,228.952 79.82,224.984C80.459,218.319 80.571,211.604 80.904,203.91M249.404,145.41C255.425,145.743 261.447,146.084 267.469,146.407C271.233,146.608 273.684,144.908 275.375,141.506C278.458,135.305 279.322,128.724 278.836,121.993C278.417,116.198 271.254,111.22 265.696,112.406C262.481,113.092 259.258,113.743 256.038,114.41C243.159,117.076 230.098,119.088 217.451,122.594C204.862,126.085 192.648,130.965 180.37,135.507C178.022,136.375 176.14,138.502 174.043,140.048C176.937,141.502 179.811,142.997 182.741,144.373C183.287,144.629 184.057,144.431 184.722,144.406C193.573,144.078 202.426,143.455 211.276,143.482C222.459,143.515 233.642,144.049 244.822,144.449C246.026,144.492 247.21,145.076 249.404,145.41Z" style="fill:rgb(0,223,129);fill-rule:nonzero;"/>
        </g>
    </g>
</svg>
